HIERARCHY
ROOT hip
{
  OFFSET 0 0 0
  CHANNELS 6 Xposition Yposition Zposition Zrotation Yrotation Xrotation
  JOINT abdomen
  {
    OFFSET 0 20.6881 -0.73152
    CHANNELS 3 Zrotation Xrotation Yrotation
    JOINT chest
    {
      OFFSET 0 11.7043 -0.48768
      CHANNELS 3 Zrotation Xrotation Yrotation
      JOINT neck
      {
        OFFSET 0 22.1894 -2.19456
        CHANNELS 3 Zrotation Xrotation Yrotation
        JOINT head
        {
          OFFSET -0.24384 7.07133 1.2192
          CHANNELS 3 Zrotation Xrotation Yrotation
          JOINT leftEye
          {
            OFFSET 4.14528 8.04674 8.04672
            CHANNELS 3 Zrotation Xrotation Yrotation
            End Site
            {
              OFFSET 1 0 0
            }
          }
          JOINT rightEye
          {
            OFFSET -3.6576 8.04674 8.04672
            CHANNELS 3 Zrotation Xrotation Yrotation
            End Site
            {
              OFFSET 1 0 0
            }
          }
        }
      }
      JOINT rCollar
      {
        OFFSET -2.68224 19.2634 -4.8768
        CHANNELS 3 Zrotation Xrotation Yrotation
        JOINT rShldr
        {
          OFFSET -8.77824 -1.95073 1.46304
          CHANNELS 3 Zrotation Xrotation Yrotation
          JOINT rForeArm
          {
            OFFSET -28.1742 -1.7115 0.48768
            CHANNELS 3 Zrotation Xrotation Yrotation
            JOINT rHand
            {
              OFFSET -22.5879 0.773209 7.07136
              CHANNELS 3 Zrotation Xrotation Yrotation
              JOINT rThumb1
              {
                OFFSET -1.2192 -0.487915 3.41376
                CHANNELS 3 Zrotation Xrotation Yrotation
                JOINT rThumb2
                {
                  OFFSET -3.37035 -0.52449 3.41376
                  CHANNELS 3 Zrotation Xrotation Yrotation
                  End Site
                  {
                    OFFSET -1.78271 -1.18214 1.43049
                  }
                }
              }
              JOINT rIndex1
              {
                OFFSET -7.75947 0.938293 5.60832
                CHANNELS 3 Zrotation Xrotation Yrotation
                JOINT rIndex2
                {
                  OFFSET -2.54057 -0.884171 1.56538
                  CHANNELS 3 Zrotation Xrotation Yrotation
                  End Site
                  {
                    OFFSET -1.62519 -0.234802 1.16502
                  }
                }
              }
              JOINT rMid1
              {
                OFFSET -8.24714 1.18213 3.41376
                CHANNELS 3 Zrotation Xrotation Yrotation
                JOINT rMid2
                {
                  OFFSET -3.10165 -0.590103 1.0647
                  CHANNELS 3 Zrotation Xrotation Yrotation
                  End Site
                  {
                    OFFSET -2.48547 -0.328903 0.83742
                  }
                }
              }
              JOINT rRing1
              {
                OFFSET -8.82822 0.546677 1.51678
                CHANNELS 3 Zrotation Xrotation Yrotation
                JOINT rRing2
                {
                  OFFSET -2.60934 -0.819778 -0.0198488
                  CHANNELS 3 Zrotation Xrotation Yrotation
                  End Site
                  {
                    OFFSET -2.33842 -0.294052 0.168128
                  }
                }
              }
              JOINT rPinky1
              {
                OFFSET -8.27202 -0.0477905 -0.4584
                CHANNELS 3 Zrotation Xrotation Yrotation
                JOINT rPinky2
                {
                  OFFSET -1.82734 -0.647385 -0.700984
                  CHANNELS 3 Zrotation Xrotation Yrotation
                  End Site
                  {
                    OFFSET -1.69225 -0.51767 -0.607171
                  }
                }
              }
            }
          }
        }
      }
      JOINT lCollar
      {
        OFFSET 2.68224 19.2634 -4.8768
        CHANNELS 3 Zrotation Xrotation Yrotation
        JOINT lShldr
        {
          OFFSET 8.77824 -1.95073 1.46304
          CHANNELS 3 Zrotation Xrotation Yrotation
          JOINT lForeArm
          {
            OFFSET 28.1742 -1.7115 0.48768
            CHANNELS 3 Zrotation Xrotation Yrotation
            JOINT lHand
            {
              OFFSET 22.5879 0.773209 7.07136
              CHANNELS 3 Zrotation Xrotation Yrotation
              JOINT lThumb1
              {
                OFFSET 1.2192 -0.487915 3.41376
                CHANNELS 3 Zrotation Xrotation Yrotation
                JOINT lThumb2
                {
                  OFFSET 3.37035 -0.52449 3.41376
                  CHANNELS 3 Zrotation Xrotation Yrotation
                  End Site
                  {
                    OFFSET 1.78271 -1.18214 1.43049
                  }
                }
              }
              JOINT lIndex1
              {
                OFFSET 7.75947 0.938293 5.60832
                CHANNELS 3 Zrotation Xrotation Yrotation
                JOINT lIndex2
                {
                  OFFSET 2.54057 -0.884171 1.56538
                  CHANNELS 3 Zrotation Xrotation Yrotation
                  End Site
                  {
                    OFFSET 1.62519 -0.234802 1.16502
                  }
                }
              }
              JOINT lMid1
              {
                OFFSET 8.24714 1.18213 3.41376
                CHANNELS 3 Zrotation Xrotation Yrotation
                JOINT lMid2
                {
                  OFFSET 3.10165 -0.590103 1.0647
                  CHANNELS 3 Zrotation Xrotation Yrotation
                  End Site
                  {
                    OFFSET 2.48547 -0.328903 0.83742
                  }
                }
              }
              JOINT lRing1
              {
                OFFSET 8.82822 0.546677 1.51678
                CHANNELS 3 Zrotation Xrotation Yrotation
                JOINT lRing2
                {
                  OFFSET 2.60934 -0.819778 -0.0198488
                  CHANNELS 3 Zrotation Xrotation Yrotation
                  End Site
                  {
                    OFFSET 2.33842 -0.294052 0.168128
                  }
                }
              }
              JOINT lPinky1
              {
                OFFSET 8.27202 -0.0477905 -0.4584
                CHANNELS 3 Zrotation Xrotation Yrotation
                JOINT lPinky2
                {
                  OFFSET 1.82734 -0.647385 -0.700984
                  CHANNELS 3 Zrotation Xrotation Yrotation
                  End Site
                  {
                    OFFSET 1.69225 -0.51767 -0.607171
                  }
                }
              }
            }
          }
        }
      }
    }
  }
  JOINT rButtock
  {
    OFFSET -8.77824 4.35084 1.2192
    CHANNELS 3 Zrotation Xrotation Yrotation
    JOINT rThigh
    {
      OFFSET 0 -1.70687 -2.19456
      CHANNELS 3 Zrotation Xrotation Yrotation
      JOINT rShin
      {
        OFFSET 0 -36.8199 0.73152
        CHANNELS 3 Zrotation Xrotation Yrotation
        JOINT rFoot
        {
          OFFSET 0.73152 -45.1104 -5.12064
          CHANNELS 3 Zrotation Xrotation Yrotation
          End Site
          {
            OFFSET -1.1221 -3.69964 12.103
          }
        }
      }
    }
  }
  JOINT lButtock
  {
    OFFSET 8.77824 4.35084 1.2192
    CHANNELS 3 Zrotation Xrotation Yrotation
    JOINT lThigh
    {
      OFFSET 0 -1.70687 -2.19456
      CHANNELS 3 Zrotation Xrotation Yrotation
      JOINT lShin
      {
        OFFSET 0 -36.8199 0.73152
        CHANNELS 3 Zrotation Xrotation Yrotation
        JOINT lFoot
        {
          OFFSET -0.73152 -45.1104 -5.12064
          CHANNELS 3 Zrotation Xrotation Yrotation
          End Site
          {
            OFFSET 1.1221 -3.69964 12.103
          }
        }
      }
    }
  }
}
MOTION
Frames:	4
Frame Time:	0.03333
-18.1554 63.6562 26.141 -80.774009 -74.270059 84.202068 16.759636 6.486626 -69.437229 7.297384 1.388169 67.543864 7.63817 12.469353 42.301026 -16.100194 -13.722035 -19.459326 -0.003615 -0.0 0.001547 -0.002608 -0.0 0.003742 -0.048871 0.29232 0.065796 53.81646 -2.20449 -37.387155 157.988152 -8.046077 22.981812 -122.909997 48.237725 103.961748 12.713604 -12.673941 -0.553356 -93.609855 25.811803 82.313548 -1.160401 1.861185 0.669677 -6.979266 22.847993 6.686443 -160.097624 -4.90139 142.968407 -167.431346 -17.360718 143.827025 -145.120619 0.18527 -179.186838 12.119239 40.325307 -4.412401 -80.9392 -51.230115 -79.359762 -145.051926 7.512225 -141.681888 155.613876 -4.236276 -161.991464 -113.810069 25.081532 64.912966 -62.195011 56.469909 -41.769144 22.91574 47.513734 -8.373376 -83.253652 -50.258278 -33.616305 44.526605 -85.057914 82.984977 153.452601 -21.068234 -121.743732 0.490818 22.227412 4.479647 10.974716 25.790089 -7.640024 -3.524374 -0.591457 0.08446 0.01518 -1.323248 0.415237 52.670682 -86.664791 74.277161 144.259612 9.236716 141.011796 22.058768 -37.457692 23.640418 0.003593 0.000662 0.003593 -10.810746 5.406191 0.0 14.34366 36.695125 41.135458 -23.859252 7.425153 -79.14736 -179.995255 75.751799 -0.003904 -140.581443 -7.787048 7.27607 78.766657 72.192978 -18.374365 -152.4477 4.249965 56.562366
-18.248900000000003 63.5602 26.1045 -80.740878 -74.211351 84.1347 14.58275 8.01909 -1.463903 6.369843 -7.722407 0.023665 9.790386 13.932283 54.372862 -20.238772 -8.829497 -32.125075 0.000746 -0.0 -0.00391 0.000746 -0.0 -0.00391 -9.65203 34.83606 11.199718 -100.450081 -15.829344 -173.347492 86.819292 -40.356433 -103.969848 -59.211692 47.491549 39.673184 -0.490473 0.485161 0.07718 -19.5294 17.997986 17.314523 -108.427706 34.161123 91.743002 109.45817 -67.754605 59.096398 -161.518422 -9.304332 143.625409 -42.505792 58.272066 36.595935 -0.001383 -0.060665 -0.020263 -149.97599 38.866541 164.834157 -144.261705 9.237778 -141.008953 -153.322904 29.741304 -145.088567 129.706257 55.102212 -133.553039 -104.904897 19.0786 125.579991 -158.0284 -71.490254 -29.76852 -175.84393 -10.135055 -143.785561 -178.339724 -19.018801 -88.988895 48.063693 -12.584334 -4.235316 43.647544 38.804828 -34.058828 6.381542 18.364298 -2.424428 145.287693 29.523923 -132.691427 163.526681 -5.89235 -143.124223 -0.00479 1.769399 -0.556648 155.589994 -1.612816 -172.045033 144.10964 8.781995 140.874172 111.514611 -42.671056 110.01152 179.998577 75.749691 0.001469 131.632185 76.584188 -0.0 -37.262215 32.42393 -73.257714 172.296176 8.945575 -84.070387 -179.999535 75.749691 -0.0 -139.261786 -8.794559 -78.63151 -89.049435 8.87773 -0.143942 15.504376 24.516306 71.850231
-18.3328 63.4919 26.098399999999998 -81.386191 -74.242156 84.722733 16.715372 6.663119 -68.874656 7.343732 1.274818 66.872069 13.303054 20.988125 95.915335 -28.671218 10.836053 -69.836109 0.00332 -0.0 -0.001725 0.00332 -0.0 -0.001725 -152.942243 10.523574 158.536366 91.697377 -27.406065 108.334084 -177.884682 35.203752 33.915538 -149.302358 27.162756 130.776383 -167.11089 -4.784403 89.808028 23.827459 -60.945051 22.491859 -1.161352 1.860951 0.669496 -161.13117 -12.814953 110.113329 89.034702 -81.393933 59.759294 -163.680981 -5.371067 143.210331 -72.13385 72.974011 89.990021 -66.716426 -82.370774 -83.760231 -145.175333 12.066923 -141.823555 56.475262 82.253992 -19.253257 82.8774 68.299656 -86.000661 68.638581 0.836986 30.282806 -84.2894 -20.40911 166.639552 106.038312 71.183345 -84.706871 97.674465 37.399256 -56.297507 160.763159 -31.833783 -78.788414 -16.967457 -30.493683 5.898504 174.425385 -35.303392 -107.568898 160.890364 -7.337451 -143.345171 170.475755 -26.279707 -143.87318 145.114714 -0.356184 179.015716 -6.318848 -29.882084 13.918664 146.213952 15.428002 142.736854 147.021588 9.967566 141.281735 179.997653 75.749486 0.001606 135.423679 75.78784 -67.442981 -37.464561 -7.058909 104.714303 -156.021166 -1.102689 39.20737 0.008256 0.000564 0.004128 86.836151 -49.660832 -2.765303 -90.110201 6.435177 -7.22821 14.507864 -17.371607 93.511488
-18.3515 63.4251 26.076 -81.632767 -74.319423 84.945955 12.244192 4.876867 111.392524 -7.326571 -5.993063 -113.646363 13.086617 20.018109 86.299327 -29.369142 6.26158 -61.016415 0.001073 0.0 0.002833 0.000124 0.0 0.000708 -14.148708 43.061424 15.996981 72.132137 11.64892 1.416914 -174.288665 10.067333 32.669909 -151.750189 23.367217 133.336115 -173.976482 -11.643425 89.881088 -135.622818 11.739382 68.194853 -0.326119 0.530338 0.186011 4.527571 9.666009 1.451124 -160.098371 -4.901635 142.967053 -131.986917 49.682231 120.799614 -145.120408 1.974359 -179.749034 -64.820727 87.669522 77.921807 -146.207869 15.404908 -142.732057 1.156942 -2.661434 -2.837977 6.251059 26.219374 -7.467004 83.180987 5.935224 -31.174028 -58.315251 20.537036 161.009698 168.703168 33.823062 -139.577188 177.567313 -15.149951 -89.590015 40.3444 -21.512706 -2.777637 172.894973 -51.894232 -120.182378 59.887308 56.673977 -47.173974 -9.418138 -29.55515 3.209782 27.813582 51.060359 -22.932222 -0.004959 0.876059 -0.276248 140.434829 60.45913 -154.514619 1.602941 -4.01495 1.486998 146.831857 10.304392 143.365881 -0.0 -7.9e-05 -0.00232 -12.24079 4.682787 69.378753 39.891922 11.438714 -133.117891 -21.215277 -28.63898 25.812966 179.997928 75.750128 0.001418 -139.096587 -9.204953 -100.461726 -88.844882 -0.054603 155.011377 12.578266 -73.513273 -82.462415
